<svg width="2335" height="315" fill="none" xmlns="http://www.w3.org/2000/svg"><path d="M97.398 259.74c-20.544 0-38.112-3.552-52.704-10.656-14.592-7.296-25.728-18.528-33.408-33.696C3.798 200.22.054 180.924.054 157.5c0-34.56 8.448-60.192 25.344-76.896 17.088-16.896 41.088-25.344 72-25.344 16.896 0 32.064 2.88 45.504 8.64 13.44 5.76 24 14.4 31.68 25.92 7.872 11.52 11.808 26.016 11.808 43.488h-43.2c0-9.216-1.92-16.992-5.76-23.328-3.648-6.336-8.928-11.136-15.84-14.4-6.72-3.456-14.592-5.184-23.616-5.184-12.288 0-22.464 2.4-30.528 7.2-7.872 4.8-13.728 11.904-17.568 21.312-3.648 9.216-5.472 20.544-5.472 33.984v8.928c0 13.824 1.92 25.44 5.76 34.848 3.84 9.216 9.6 16.224 17.28 21.024 7.872 4.608 17.952 6.912 30.24 6.912 9.6 0 17.952-1.632 25.056-4.896 7.104-3.264 12.576-8.064 16.416-14.4s5.76-14.112 5.76-23.328h41.472c0 17.472-3.84 31.968-11.52 43.488-7.488 11.52-17.952 20.16-31.392 25.92-13.44 5.568-28.8 8.352-46.08 8.352ZM311.361 259.74c-20.928 0-38.976-3.744-54.144-11.232-15.168-7.488-26.784-18.816-34.848-33.984-8.064-15.168-12.096-34.176-12.096-57.024 0-23.232 4.032-42.336 12.096-57.312 8.064-15.168 19.68-26.4 34.848-33.696 15.168-7.488 33.216-11.232 54.144-11.232 21.312 0 39.456 3.744 54.432 11.232 15.168 7.296 26.784 18.528 34.848 33.696 8.064 14.976 12.096 34.08 12.096 57.312 0 22.848-4.032 41.856-12.096 57.024s-19.68 26.496-34.848 33.984c-14.976 7.488-33.12 11.232-54.432 11.232Zm0-35.136c9.408 0 17.664-1.344 24.768-4.032 7.104-2.688 13.056-6.72 17.856-12.096 4.8-5.376 8.448-11.904 10.944-19.584 2.496-7.872 3.744-16.8 3.744-26.784v-8.928c0-10.176-1.248-19.2-3.744-27.072-2.496-7.872-6.144-14.4-10.944-19.584-4.8-5.376-10.752-9.408-17.856-12.096-7.104-2.688-15.36-4.032-24.768-4.032-9.216 0-17.376 1.344-24.48 4.032-7.104 2.688-13.056 6.72-17.856 12.096-4.8 5.184-8.448 11.712-10.944 19.584-2.304 7.872-3.456 16.896-3.456 27.072v8.928c0 9.984 1.152 18.912 3.456 26.784 2.496 7.68 6.144 14.208 10.944 19.584 4.8 5.376 10.752 9.408 17.856 12.096 7.104 2.688 15.264 4.032 24.48 4.032ZM446.576 256.284V58.716h39.456l79.488 106.56c1.152 1.344 2.592 3.264 4.32 5.76a152.657 152.657 0 0 1 4.896 6.912c1.536 2.304 2.592 4.128 3.168 5.472h1.44V58.716h40.608v197.568h-39.456L499.28 147.132a235.87 235.87 0 0 1-6.048-8.928c-2.112-3.264-3.648-5.76-4.608-7.488h-1.44v125.568h-40.608ZM739.597 259.74c-11.52 0-22.464-1.152-32.832-3.456-10.368-2.304-19.584-5.952-27.648-10.944-7.872-5.184-14.112-11.616-18.72-19.296-4.416-7.872-6.624-17.376-6.624-28.512v-2.88c0-1.152.096-2.016.288-2.592h42.624c-.192.576-.288 1.344-.288 2.304v2.592c0 6.144 1.632 11.328 4.896 15.552 3.456 4.224 8.448 7.392 14.976 9.504 6.528 2.112 14.112 3.168 22.752 3.168 5.568 0 10.464-.288 14.688-.864 4.416-.768 8.256-1.728 11.52-2.88 3.456-1.344 6.24-2.88 8.352-4.608 2.304-1.728 3.936-3.744 4.896-6.048 1.152-2.304 1.728-4.896 1.728-7.776 0-5.184-1.728-9.408-5.184-12.672-3.264-3.264-7.872-6.048-13.824-8.352-5.76-2.304-12.288-4.416-19.584-6.336-7.296-1.92-14.784-3.84-22.464-5.76a220.034 220.034 0 0 1-22.464-7.488c-7.296-3.072-13.824-6.72-19.584-10.944-5.76-4.224-10.368-9.6-13.824-16.128-3.456-6.528-5.184-14.4-5.184-23.616 0-9.792 2.016-18.24 6.048-25.344 4.224-7.104 10.08-12.96 17.568-17.568 7.488-4.608 16.128-7.968 25.92-10.08 9.792-2.304 20.448-3.456 31.968-3.456 10.752 0 20.928 1.152 30.528 3.456 9.6 2.112 18.048 5.568 25.344 10.368 7.296 4.8 12.96 10.848 16.992 18.144 4.224 7.296 6.336 15.936 6.336 25.92v3.456h-41.76V114.3c0-5.184-1.536-9.6-4.608-13.248-3.072-3.648-7.392-6.528-12.96-8.64-5.568-2.112-12.096-3.168-19.584-3.168-8.064 0-14.976.768-20.736 2.304-5.568 1.536-9.888 3.84-12.96 6.912-2.88 2.88-4.32 6.336-4.32 10.368 0 4.608 1.632 8.448 4.896 11.52 3.456 2.88 8.064 5.472 13.824 7.776 5.952 2.112 12.576 4.032 19.872 5.76a648.044 648.044 0 0 1 22.464 5.76 220.034 220.034 0 0 1 22.464 7.488c7.296 2.88 13.824 6.528 19.584 10.944 5.76 4.224 10.368 9.504 13.824 15.84 3.456 6.336 5.184 13.92 5.184 22.752 0 15.168-3.648 27.36-10.944 36.576-7.296 9.216-17.28 15.936-29.952 20.16s-27.168 6.336-43.488 6.336ZM905.842 256.284V94.716h-63.36v-36h170.208v36h-63.648v161.568h-43.2ZM1040.67 256.284V58.716h108.29c14.59 0 26.69 2.592 36.29 7.776 9.79 5.184 17.08 12.48 21.88 21.888 4.8 9.216 7.2 19.872 7.2 31.968 0 12.864-2.88 24.288-8.64 34.272-5.76 9.792-14.11 17.28-25.05 22.464l40.32 79.2h-47.52l-34.85-72h-55.01v72h-42.91Zm42.91-105.984h59.62c8.64 0 15.36-2.592 20.16-7.776 4.8-5.376 7.2-12.576 7.2-21.6 0-5.76-1.06-10.656-3.17-14.688-2.11-4.224-5.18-7.392-9.22-9.504-4.03-2.112-9.02-3.168-14.97-3.168h-59.62V150.3ZM1333.05 259.74c-18.05 0-33.6-2.88-46.66-8.64-12.86-5.76-22.75-14.4-29.66-25.92-6.91-11.712-10.37-26.208-10.37-43.488V58.716h43.2V180.54c0 14.208 3.75 25.152 11.23 32.832 7.49 7.488 18.24 11.232 32.26 11.232s24.77-3.744 32.26-11.232c7.68-7.68 11.52-18.624 11.52-32.832V58.716h43.2v122.976c0 17.28-3.46 31.776-10.37 43.488-6.91 11.52-16.9 20.16-29.95 25.92-12.87 5.76-28.42 8.64-46.66 8.64ZM1550.37 259.74c-20.55 0-38.11-3.552-52.71-10.656-14.59-7.296-25.72-18.528-33.4-33.696-7.49-15.168-11.24-34.464-11.24-57.888 0-34.56 8.45-60.192 25.35-76.896 17.09-16.896 41.09-25.344 72-25.344 16.89 0 32.06 2.88 45.5 8.64 13.44 5.76 24 14.4 31.68 25.92 7.87 11.52 11.81 26.016 11.81 43.488h-43.2c0-9.216-1.92-16.992-5.76-23.328-3.65-6.336-8.93-11.136-15.84-14.4-6.72-3.456-14.59-5.184-23.62-5.184-12.28 0-22.46 2.4-30.52 7.2-7.88 4.8-13.73 11.904-17.57 21.312-3.65 9.216-5.47 20.544-5.47 33.984v8.928c0 13.824 1.92 25.44 5.76 34.848 3.84 9.216 9.6 16.224 17.28 21.024 7.87 4.608 17.95 6.912 30.24 6.912 9.6 0 17.95-1.632 25.05-4.896 7.11-3.264 12.58-8.064 16.42-14.4 3.84-6.336 5.76-14.112 5.76-23.328h41.47c0 17.472-3.84 31.968-11.52 43.488-7.49 11.52-17.95 20.16-31.39 25.92-13.44 5.568-28.8 8.352-46.08 8.352ZM1715.22 256.284V94.716h-63.36v-36h170.2v36h-63.64v161.568h-43.2ZM1926.94 259.74c-11.52 0-22.46-1.152-32.83-3.456-10.37-2.304-19.59-5.952-27.65-10.944-7.87-5.184-14.11-11.616-18.72-19.296-4.42-7.872-6.62-17.376-6.62-28.512v-2.88c0-1.152.09-2.016.28-2.592h42.63c-.19.576-.29 1.344-.29 2.304v2.592c0 6.144 1.63 11.328 4.9 15.552 3.45 4.224 8.44 7.392 14.97 9.504 6.53 2.112 14.11 3.168 22.75 3.168 5.57 0 10.47-.288 14.69-.864 4.42-.768 8.26-1.728 11.52-2.88 3.46-1.344 6.24-2.88 8.35-4.608 2.31-1.728 3.94-3.744 4.9-6.048 1.15-2.304 1.73-4.896 1.73-7.776 0-5.184-1.73-9.408-5.19-12.672-3.26-3.264-7.87-6.048-13.82-8.352-5.76-2.304-12.29-4.416-19.58-6.336-7.3-1.92-14.79-3.84-22.47-5.76a219.472 219.472 0 0 1-22.46-7.488c-7.3-3.072-13.83-6.72-19.59-10.944-5.76-4.224-10.36-9.6-13.82-16.128-3.46-6.528-5.18-14.4-5.18-23.616 0-9.792 2.01-18.24 6.04-25.344 4.23-7.104 10.08-12.96 17.57-17.568 7.49-4.608 16.13-7.968 25.92-10.08 9.79-2.304 20.45-3.456 31.97-3.456 10.75 0 20.93 1.152 30.53 3.456 9.6 2.112 18.05 5.568 25.34 10.368 7.3 4.8 12.96 10.848 16.99 18.144 4.23 7.296 6.34 15.936 6.34 25.92v3.456h-41.76V114.3c0-5.184-1.54-9.6-4.61-13.248-3.07-3.648-7.39-6.528-12.96-8.64-5.57-2.112-12.09-3.168-19.58-3.168-8.07 0-14.98.768-20.74 2.304-5.57 1.536-9.89 3.84-12.96 6.912-2.88 2.88-4.32 6.336-4.32 10.368 0 4.608 1.63 8.448 4.9 11.52 3.45 2.88 8.06 5.472 13.82 7.776 5.95 2.112 12.58 4.032 19.87 5.76 7.3 1.728 14.79 3.648 22.47 5.76a219.472 219.472 0 0 1 22.46 7.488c7.3 2.88 13.83 6.528 19.59 10.944 5.76 4.224 10.36 9.504 13.82 15.84 3.46 6.336 5.18 13.92 5.18 22.752 0 15.168-3.64 27.36-10.94 36.576-7.3 9.216-17.28 15.936-29.95 20.16-12.67 4.224-27.17 6.336-43.49 6.336ZM2288.07 314.625c-2 0-3.87-.312-5.62-.937s-3.38-1.688-4.88-3.188l-76.5-76.5c-1.5-1.5-2.56-3.125-3.18-4.875-.63-1.75-.94-3.625-.94-5.625s.31-3.875.94-5.625c.62-1.75 1.68-3.375 3.18-4.875l31.88-31.875c1.5-1.5 3.12-2.562 4.87-3.187s3.63-.938 5.63-.938 3.87.313 5.62.938 3.38 1.687 4.88 3.187l76.5 76.5c1.5 1.5 2.56 3.125 3.19 4.875.62 1.75.93 3.625.93 5.625s-.31 3.875-.93 5.625c-.63 1.75-1.69 3.375-3.19 4.875l-31.88 31.875c-1.5 1.5-3.12 2.563-4.87 3.188s-3.63.937-5.63.937Zm0-35.625 10.88-10.875L2243.82 213l-10.87 10.875L2288.07 279Zm-205.87 36c-2 0-3.94-.375-5.81-1.125-1.88-.75-3.57-1.875-5.07-3.375l-31.5-31.5c-1.5-1.5-2.62-3.187-3.37-5.062a15.522 15.522 0 0 1-1.13-5.813c0-2 .38-3.875 1.13-5.625.75-1.75 1.87-3.375 3.37-4.875l79.5-79.5h31.88l12.75-12.75-61.88-61.875h-21.37l-45.38-45.375 42.38-42.375 45.37 45.375V82.5l61.88 61.875 43.5-43.5-16.13-16.125 21-21h-42.37l-10.5-10.5L2233.7 0l10.5 10.5v42.375l21-21 53.25 53.25c4.25 4.25 7.5 9.063 9.75 14.438s3.37 11.062 3.37 17.062c0 6-1.12 11.75-3.37 17.25s-5.5 10.375-9.75 14.625l-31.88-31.875-21 21-15.75-15.75-77.62 77.625V231l-79.5 79.5c-1.5 1.5-3.13 2.625-4.88 3.375S2084.2 315 2082.2 315Zm0-36 63.75-63.75v-10.875h-10.88l-63.75 63.75L2082.2 279Zm0 0-10.88-10.875 5.63 5.25 5.25 5.625Z" fill="#050505"/></svg>